<svg width="92" height="31" viewBox="0 0 92 31" fill="none" xmlns="http://www.w3.org/2000/svg">
<path d="M11.3306 0H12.1487C14.9889 0.0617445 17.7829 1.20402 19.7896 3.22615C19.0486 3.98252 18.2923 4.70802 17.5668 5.46439C16.4399 4.4456 15.0815 3.65836 13.5997 3.38051C11.4077 2.91743 9.04602 3.3342 7.20912 4.58453C5.20242 5.8966 3.84404 8.1194 3.55076 10.4966C3.2266 12.8429 3.89035 15.3126 5.41853 17.1341C6.88496 18.9093 9.1232 20.0207 11.4386 20.0978C13.5997 20.2213 15.8534 19.5576 17.4278 18.0448C18.6627 16.9797 19.2339 15.3589 19.4191 13.7845C16.8567 13.7845 14.2943 13.7999 11.7319 13.7845V10.6046H22.5218C23.0775 14.016 22.2748 17.8596 19.6815 20.2985C17.9527 22.0274 15.5601 23.0461 13.1212 23.2468C10.7594 23.4783 8.32052 23.0307 6.22121 21.8884C3.70512 20.5455 1.69842 18.2764 0.710511 15.6059C-0.215657 13.1516 -0.231093 10.3731 0.63333 7.9033C1.42057 5.64962 2.93331 3.65836 4.87827 2.26911C6.74604 0.895295 9.01515 0.138925 11.3306 0Z" fill="#3780FF"/>
<path d="M73.2295 0.802734H76.5328V22.8455C75.4369 22.8455 74.3255 22.861 73.2295 22.8301C73.2449 15.4979 73.2295 8.15033 73.2295 0.802734Z" fill="#38B137"/>
<path d="M29.869 8.44357C31.9065 8.05767 34.1139 8.48988 35.7964 9.70933C37.3246 10.7899 38.3897 12.4878 38.7139 14.3402C39.1306 16.4858 38.6058 18.8321 37.2166 20.5301C35.7192 22.4287 33.2649 23.4475 30.8723 23.2931C28.6804 23.1696 26.5502 22.0737 25.2536 20.2831C23.7871 18.3073 23.4321 15.5905 24.2348 13.2751C25.0375 10.7899 27.3066 8.89122 29.869 8.44357ZM30.332 11.3764C29.4985 11.5925 28.7267 12.0711 28.171 12.7502C26.6737 14.5408 26.7663 17.4583 28.418 19.1254C29.3596 20.0824 30.7797 20.5301 32.0918 20.2676C33.3112 20.0515 34.3763 19.2334 34.9629 18.1529C35.9817 16.316 35.6884 13.7845 34.1293 12.3489C33.126 11.4227 31.6595 11.0368 30.332 11.3764Z" fill="#FA3913"/>
<path d="M46.2323 8.44373C48.5631 7.99608 51.1101 8.6444 52.8544 10.2806C55.6946 12.8276 56.0033 17.5974 53.5799 20.5302C52.1134 22.3826 49.7363 23.4013 47.39 23.2933C45.1517 23.2315 42.9444 22.1201 41.6169 20.2832C40.1196 18.2611 39.7954 15.4826 40.6444 13.1209C41.4934 10.7128 43.7162 8.87594 46.2323 8.44373ZM46.6954 11.3766C45.8618 11.5927 45.09 12.0712 44.5343 12.735C43.0524 14.4947 43.1142 17.3658 44.7041 19.0483C45.6457 20.0517 47.1121 20.5457 48.4705 20.2678C49.6745 20.0363 50.7551 19.2336 51.3416 18.1531C52.345 16.3007 52.0517 13.7692 50.4772 12.3336C49.4739 11.4075 48.0074 11.037 46.6954 11.3766Z" fill="#FCBD06"/>
<path d="M60.1092 9.33853C61.8844 8.22713 64.2461 7.91841 66.1602 8.87545C66.7622 9.13786 67.2562 9.58551 67.7347 10.0332C67.7501 9.61638 67.7347 9.18417 67.7501 8.75196C68.7844 8.76739 69.8186 8.75196 70.8682 8.76739V22.3821C70.8528 24.4351 70.328 26.6116 68.8461 28.1089C67.2253 29.7605 64.7401 30.2699 62.5018 29.9303C60.1092 29.5753 58.0254 27.831 57.0992 25.6236C58.0254 25.176 58.9978 24.821 59.9549 24.4042C60.4952 25.67 61.5911 26.7505 62.9649 26.9975C64.3387 27.2444 65.9287 26.9048 66.824 25.7626C67.781 24.5894 67.781 22.9841 67.7347 21.5485C67.0246 22.2431 66.2065 22.8606 65.2186 23.0921C63.073 23.6941 60.7113 22.9532 59.0596 21.5022C57.3925 20.0512 56.4046 17.813 56.4972 15.5902C56.5435 13.0741 57.9636 10.6506 60.1092 9.33853ZM63.3045 11.3144C62.3629 11.4687 61.4831 11.9935 60.8811 12.719C59.4301 14.4479 59.4301 17.211 60.8965 18.9089C61.73 19.9123 63.073 20.468 64.3696 20.3291C65.5891 20.2056 66.7159 19.4338 67.3179 18.3687C68.3367 16.5626 68.1669 14.1083 66.7931 12.5338C65.9441 11.5613 64.5857 11.0828 63.3045 11.3144Z" fill="#3780FF"/>
<path d="M80.4996 10.1256C82.3519 8.39679 85.2076 7.81022 87.5848 8.72095C89.8385 9.56994 91.274 11.7156 91.9995 13.9229C88.6499 15.3122 85.3157 16.686 81.966 18.0752C82.4291 18.9551 83.1392 19.7578 84.0962 20.0819C85.4392 20.5605 87.0445 20.3907 88.1714 19.4954C88.619 19.1558 88.974 18.7081 89.3136 18.2759C90.1626 18.8471 91.0116 19.4028 91.8606 19.9739C90.6566 21.7799 88.6344 23.0457 86.458 23.2463C84.0499 23.5396 81.4875 22.6135 79.9285 20.7303C77.3661 17.7665 77.6131 12.7961 80.4996 10.1256ZM82.1513 12.9813C81.6265 13.7377 81.4103 14.6639 81.4258 15.5746C83.664 14.6484 85.9023 13.7223 88.1405 12.7807C87.77 11.9162 86.8747 11.3914 85.964 11.2525C84.4976 10.9901 82.9694 11.7773 82.1513 12.9813Z" fill="#FA3913"/>
</svg>
