<svg width="184" height="55" viewBox="0 0 184 55" fill="none" xmlns="http://www.w3.org/2000/svg">
<path d="M94.7207 16.6612C94.8334 22.0902 96.5958 26.7198 100.898 30.1175C106.938 34.8851 117.447 34.8415 123.672 28.2787C125.391 26.4691 126.67 24.3977 127.484 22.0394C127.822 21.0618 127.52 20.2224 126.735 19.9317C125.885 19.6156 125.096 20.048 124.729 21.0219C124.577 21.4252 124.439 21.8322 124.261 22.2247C121.702 27.8318 115.917 31.0841 109.783 30.4009C106.502 30.0339 103.547 28.9183 101.32 26.4145C97.5224 22.1484 96.7302 17.1663 98.4781 11.8645C100.153 6.7916 103.838 3.86996 109.144 3.13228C113.541 2.52179 117.491 3.58289 120.845 6.5772C122.6 8.1434 123.839 10.0548 124.675 12.257C124.849 12.7185 125.202 13.2817 125.609 13.4343C126.041 13.5942 126.721 13.4634 127.142 13.2054C127.749 12.8384 127.749 12.1552 127.509 11.5011C125.267 5.38529 120.979 1.57335 114.58 0.363267C109.696 -0.559738 105.052 0.246983 101.036 3.32124C96.6467 6.66805 94.8697 11.3303 94.7207 16.6612ZM136.481 3.67736C136.721 3.64466 136.845 3.61559 136.968 3.61559C139.479 3.61195 141.99 3.55381 144.498 3.63013C147.601 3.72824 150.446 4.66578 152.761 6.8025C156.718 10.4582 157.75 15.0805 156.613 20.1461C155.414 25.4915 151.929 28.7366 146.522 29.7032C144.745 30.0193 142.891 29.9176 141.071 29.9975C140.086 30.0411 139.454 30.5862 139.439 31.4329C139.425 32.2869 140.05 32.861 141.042 32.8719C142.234 32.8828 143.426 32.9228 144.617 32.8647C149.738 32.6103 154.004 30.6371 157.009 26.3782C159.487 22.8679 160.185 18.9142 159.771 14.6698C159.029 7.07504 152.906 1.09368 145.301 0.777529C142.037 0.639441 138.763 0.690315 135.493 0.668511C134.072 0.661244 133.6 1.15909 133.6 2.60537C133.6 12.0353 133.6 21.4688 133.6 30.8987C133.6 31.1531 133.585 31.4111 133.621 31.6582C133.73 32.3814 134.334 32.8792 135.049 32.8683C135.816 32.8574 136.401 32.3232 136.467 31.5637C136.492 31.2876 136.481 31.0078 136.481 30.728C136.481 22.0575 136.481 13.3871 136.481 4.71665C136.481 4.3896 136.481 4.06255 136.481 3.67736ZM8.79404 21.1382C10.4729 21.1382 12.0427 21.1963 13.6089 21.1236C16.1599 21.011 18.4202 20.1316 20.1717 18.2165C22.5192 15.651 23.2133 12.5804 22.8026 9.18996C22.2321 4.46228 18.5147 0.915616 13.7797 0.78843C9.8515 0.683048 5.91964 0.737556 1.99142 0.726655C0.417952 0.723021 0.00732422 1.13728 0.00732422 2.70712C0.00732422 12.1152 0.00732361 21.5233 0.0109575 30.9278C0.0109575 31.2294 0.0109578 31.5419 0.0836353 31.8327C0.258061 32.5267 0.84675 32.901 1.58443 32.8392C2.3221 32.7775 2.81268 32.3123 2.87809 31.5892C2.90716 31.2876 2.89626 30.9823 2.89626 30.6771C2.89626 22.0067 2.89626 13.3326 2.89626 4.66215C2.89626 4.34236 2.89626 4.01895 2.89626 3.69916C3.09249 3.65919 3.18697 3.61922 3.28508 3.61922C6.83538 3.62649 10.3893 3.55381 13.9323 3.69916C14.9862 3.74277 16.1308 4.20791 17.0284 4.7966C19.6993 6.54449 20.7531 10.113 19.7393 13.3834C18.7618 16.5304 16.3271 18.2674 12.8603 18.2819C11.087 18.2892 9.31005 18.271 7.53672 18.2892C6.45019 18.3001 5.8615 18.8524 5.85787 19.9135C5.84333 23.6928 5.84333 27.4684 5.85787 31.2476C5.8615 32.2942 6.38478 32.832 7.28961 32.8465C8.22715 32.861 8.78314 32.2869 8.79767 31.2367C8.81584 29.9939 8.80131 28.7511 8.80131 27.5083C8.79768 25.4298 8.79404 23.3548 8.79404 21.1382ZM168.765 3.60832C169.139 3.60832 169.437 3.60832 169.738 3.60832C173.747 3.60832 177.751 3.61196 181.759 3.60105C182.159 3.60105 182.577 3.56108 182.955 3.44843C183.584 3.25947 183.892 2.75072 183.907 2.12206C183.922 1.47523 183.576 1.00283 182.966 0.792062C182.661 0.686679 182.319 0.664879 181.992 0.664879C177.25 0.657612 172.508 0.657608 167.765 0.661242C166.319 0.661242 165.85 1.13365 165.85 2.5763C165.85 12.0353 165.85 21.4943 165.85 30.9533C165.85 32.4468 166.283 32.8719 167.813 32.8719C172.504 32.8719 177.195 32.8719 181.887 32.8719C182.141 32.8719 182.399 32.8901 182.646 32.8501C183.351 32.7375 183.791 32.3196 183.903 31.6146C184.009 30.9642 183.573 30.2955 182.9 30.0993C182.592 30.0084 182.25 30.0012 181.927 30.0012C177.842 29.9939 173.761 29.9975 169.677 29.9975C169.382 29.9975 169.088 29.9975 168.765 29.9975C168.765 21.1709 168.765 12.4568 168.765 3.60832ZM66.8779 16.4868C66.9543 17.3953 66.9797 18.311 67.1105 19.2122C67.7428 23.4929 69.5925 27.1195 73.041 29.8158C76.1952 32.2833 79.8691 33.1554 83.8009 33.0972C85.8432 33.0682 87.8345 32.6539 89.7169 31.8581C90.1166 31.6909 90.5527 31.2222 90.6544 30.8152C90.9269 29.7214 89.9676 28.9001 88.8702 29.1872C87.7473 29.4815 86.639 29.8704 85.4979 30.063C80.5886 30.8915 74.7053 29.1654 71.7364 24.0634C69.8795 20.8765 69.269 17.4243 69.9704 13.805C70.8425 9.3026 73.3244 5.97398 77.5615 4.10616C81.1627 2.51452 84.8293 2.51089 88.5032 3.9281C89.517 4.32056 90.2838 4.05529 90.6108 3.2413C90.9669 2.3619 90.5999 1.64239 89.5497 1.2463C85.2363 -0.385315 80.8974 -0.338074 76.6313 1.32624C69.8468 3.9608 66.8343 10.6835 66.8779 16.4868ZM121.913 16.7012C121.859 9.0773 114.431 4.08436 107.367 6.94785C105.234 7.81272 103.609 9.32078 102.472 11.3267C101.89 12.3514 102.305 13.3726 103.351 13.5942C104.245 13.7832 104.681 13.1981 105.11 12.5695C108.086 8.21971 113.799 7.83815 117.193 11.8391C119.184 14.1865 119.562 16.9228 118.352 19.7427C117.145 22.5481 114.961 24.1797 111.854 24.3723C108.827 24.5576 106.622 23.1332 104.976 20.6948C104.409 19.8554 103.646 19.6265 102.911 20.0625C102.159 20.5131 102.003 21.3525 102.548 22.2465C104.608 25.6151 107.646 27.3376 111.564 27.3594C117.243 27.3884 121.953 22.4863 121.913 16.7012ZM142.339 9.46613C143.778 9.37165 145.112 9.37165 146.394 9.85859C149.222 10.927 150.523 13.1145 150.886 15.9998C151.358 19.75 149.12 23.1913 145.504 23.9471C144.112 24.2378 142.633 24.107 141.191 24.1543C140.09 24.1906 139.501 24.6812 139.505 25.5751C139.508 26.5127 140.119 27.0541 141.227 27.0686C142.292 27.0832 143.36 27.1122 144.421 27.0468C147.23 26.8724 149.629 25.8077 151.435 23.5983C153.462 21.1127 154.102 18.2238 153.63 15.1023C153.044 11.2395 150.999 8.49225 147.259 7.09684C145.272 6.35553 143.211 6.57357 141.165 6.54813C140.006 6.53359 139.505 7.0496 139.501 8.21971C139.49 10.3492 139.497 12.4786 139.497 14.6081C139.497 16.3051 139.483 18.0057 139.508 19.7028C139.523 20.5822 140.057 21.12 140.849 21.1454C141.663 21.1709 142.194 20.6948 142.306 19.8118C142.343 19.5102 142.335 19.2049 142.335 18.8997C142.339 15.7891 142.339 12.6712 142.339 9.46613ZM83.572 27.1341C85.6215 27.145 87.5365 26.6507 89.2735 25.5569C89.9894 25.1063 90.1457 24.3214 89.7423 23.6383C89.3571 22.9842 88.6594 22.7843 87.8963 23.115C87.4566 23.3076 87.0314 23.5474 86.5772 23.6964C83.5175 24.7175 80.6576 24.4377 78.2157 22.1811C76.3842 20.4877 75.9445 18.2456 76.0535 15.8545C76.2061 12.515 78.5463 9.76775 81.8204 9.10275C83.9426 8.67031 85.9413 9.05187 87.8491 10.0476C88.6848 10.4836 89.4007 10.2583 89.7786 9.51701C90.1602 8.77206 89.9276 8.05256 89.1282 7.59832C87.7255 6.79887 86.2102 6.28286 84.6076 6.1375C78.7753 5.61786 73.9894 9.2481 73.2808 15.0223C72.4632 21.7813 76.8529 27.1268 83.572 27.1341ZM33.8278 16.7412C33.8278 21.4289 33.8278 26.1202 33.8315 30.8079C33.8315 31.1095 33.8278 31.4184 33.886 31.7164C34.0168 32.4177 34.5764 32.8647 35.285 32.8683C35.99 32.8719 36.5532 32.425 36.6841 31.72C36.7349 31.4475 36.7422 31.1677 36.7422 30.8878C36.7458 21.487 36.7458 12.0825 36.7422 2.68168C36.7422 2.40551 36.7313 2.12206 36.6804 1.84952C36.5496 1.15908 35.9609 0.675782 35.2923 0.68305C34.6091 0.690318 34.0095 1.16999 33.886 1.84225C33.8315 2.1366 33.8387 2.44548 33.8387 2.75072C33.8278 7.41299 33.8278 12.0789 33.8278 16.7412ZM48.5087 9.42252C48.5087 9.87313 48.5087 10.1965 48.5087 10.5236C48.5087 17.2608 48.5087 24.0016 48.5087 30.7389C48.5087 31.0441 48.4978 31.3494 48.5341 31.651C48.625 32.3559 49.1664 32.832 49.8714 32.8683C50.838 32.9156 51.4122 32.2905 51.4122 31.1495C51.4158 25.3244 51.4158 19.4956 51.4158 13.6705C51.4158 11.8463 51.4231 10.0221 51.4122 8.19791C51.4049 7.23493 50.9252 6.6099 50.0495 6.59537C47.5675 6.55176 45.0856 6.54813 42.6036 6.59537C41.6298 6.61354 41.0302 7.50747 41.2627 8.39777C41.4263 9.0228 42.0077 9.41889 42.8616 9.42252C44.7004 9.42979 46.5464 9.42252 48.5087 9.42252ZM57.2591 9.42252C57.6515 9.42252 57.9277 9.42252 58.2039 9.42252C59.7992 9.42252 61.3981 9.43706 62.9933 9.41526C64.1089 9.40072 64.7267 8.63034 64.476 7.62739C64.3088 6.95149 63.7746 6.56993 62.9207 6.5663C60.6895 6.55903 58.4619 6.55903 56.2307 6.56266C54.8607 6.5663 54.3592 7.06777 54.3592 8.45228C54.3556 15.9526 54.3556 23.4566 54.3629 30.9569C54.3629 31.2585 54.381 31.571 54.4646 31.8581C54.6608 32.5631 55.1623 32.8974 55.8855 32.8574C56.6086 32.8174 57.0701 32.4286 57.2046 31.7164C57.27 31.3712 57.2627 31.0114 57.2627 30.6553C57.2663 23.9399 57.2663 17.2245 57.2627 10.5091C57.2591 10.1893 57.2591 9.86222 57.2591 9.42252ZM27.9737 16.7775C27.9737 18.8815 27.9737 20.9855 27.9737 23.0895C27.9737 25.8767 27.9664 28.6675 27.9846 31.4547C27.9918 32.2869 28.5732 32.8465 29.3654 32.8683C30.1503 32.8901 30.7608 32.345 30.848 31.5383C30.8699 31.3385 30.859 31.1349 30.859 30.9315C30.859 21.5015 30.859 12.0753 30.859 2.64534C30.859 2.41641 30.8698 2.18747 30.8371 1.96217C30.7354 1.26083 30.1939 0.748456 29.5217 0.690314C28.6241 0.614002 27.9773 1.28627 27.9773 2.33283C27.9736 7.14408 27.9737 11.9626 27.9737 16.7775ZM174.619 9.42252C177.199 9.42252 179.677 9.42616 182.159 9.41889C183.209 9.41526 183.896 8.86291 183.918 8.03438C183.94 7.14772 183.271 6.56993 182.174 6.5663C179.263 6.55903 176.349 6.55903 173.438 6.5663C172.199 6.56993 171.679 7.08957 171.672 8.32146C171.664 9.96761 171.668 11.6138 171.668 13.2599C171.668 14.7898 172.188 15.3167 173.714 15.3203C175.538 15.3276 177.362 15.3276 179.183 15.3167C179.532 15.313 179.902 15.284 180.226 15.1641C180.847 14.9315 181.232 14.47 181.182 13.7723C181.131 13.1036 180.778 12.624 180.102 12.4714C179.761 12.395 179.401 12.3841 179.048 12.3805C177.588 12.3696 176.123 12.3769 174.615 12.3769C174.619 11.3594 174.619 10.4364 174.619 9.42252ZM174.648 24.0925C174.648 23.0423 174.648 22.1229 174.648 21.1563C176.345 21.1563 177.966 21.1672 179.583 21.1527C180.575 21.1454 181.189 20.5749 181.189 19.7173C181.189 18.8851 180.538 18.2928 179.557 18.2856C177.479 18.271 175.4 18.2674 173.322 18.2856C172.239 18.2965 171.679 18.8597 171.672 19.9353C171.657 21.7087 171.657 23.482 171.672 25.259C171.679 26.4182 172.184 26.9633 173.322 26.9705C176.312 26.9887 179.303 26.9887 182.294 26.9705C183.264 26.9669 183.889 26.4073 183.914 25.6187C183.943 24.7539 183.293 24.1143 182.272 24.1034C180.041 24.078 177.809 24.0961 175.582 24.0925C175.287 24.0925 174.986 24.0925 174.648 24.0925ZM52.942 0.723023C50.4346 0.723023 47.9236 0.719389 45.4163 0.723023C44.4278 0.723023 43.4394 0.708486 42.4547 0.766628C41.7424 0.810234 41.2845 1.32261 41.23 1.99124C41.1719 2.71802 41.5389 3.30307 42.2294 3.49204C42.5419 3.57925 42.8798 3.60105 43.2032 3.60105C49.6643 3.60832 56.1289 3.60469 62.59 3.60469C62.8407 3.60469 63.0987 3.60468 63.3458 3.55744C64.1416 3.40482 64.5595 2.84521 64.5087 2.03849C64.4541 1.15909 63.9527 0.730289 62.8989 0.726655C59.5811 0.719387 56.2634 0.726657 52.942 0.723023ZM10.0223 6.50452C10.0223 6.52632 10.0187 6.54449 10.0187 6.5663C9.18287 6.5663 8.34707 6.5554 7.51128 6.56993C6.45019 6.58447 5.89421 7.11138 5.90874 8.06346C5.92328 8.97919 6.45019 9.43706 7.52582 9.44069C9.12109 9.4516 10.7164 9.42979 12.3153 9.44796C13.3909 9.45887 13.9832 9.98578 14.0014 10.8906C14.0232 11.8354 13.4381 12.3805 12.3298 12.435C11.7738 12.4604 11.2142 12.4314 10.6619 12.4932C9.8733 12.5804 9.4445 13.0491 9.4227 13.7723C9.39726 14.5863 9.76429 15.1277 10.5783 15.1859C11.5812 15.2585 12.6132 15.3167 13.5944 15.1495C15.564 14.8152 16.8758 13.0055 16.8612 10.8834C16.8467 8.72483 15.5385 7.03143 13.5035 6.71529C12.3589 6.54086 11.1851 6.56993 10.0223 6.50452Z" fill="white"/>
<path d="M94.7202 16.6613C94.8692 11.3304 96.6498 6.66818 101.029 3.31775C105.044 0.243484 109.692 -0.563236 114.572 0.359769C120.975 1.56985 125.259 5.38178 127.501 11.4976C127.741 12.1553 127.741 12.8349 127.134 13.2019C126.713 13.4563 126.037 13.5907 125.601 13.4308C125.194 13.2782 124.841 12.7113 124.667 12.2535C123.831 10.055 122.592 8.1399 120.837 6.5737C117.483 3.57938 113.533 2.51829 109.136 3.12878C103.83 3.86646 100.142 6.78809 98.4704 11.861C96.7225 17.1628 97.5147 22.1449 101.312 26.411C103.54 28.9148 106.494 30.0304 109.775 30.3974C115.909 31.0842 121.694 27.8283 124.253 22.2212C124.431 21.8287 124.573 21.4217 124.722 21.0184C125.089 20.0445 125.877 19.6157 126.727 19.9282C127.512 20.2189 127.814 21.0547 127.476 22.0358C126.662 24.3942 125.383 26.4656 123.664 28.2752C117.436 34.838 106.93 34.8816 100.891 30.114C96.5953 26.7199 94.8329 22.0904 94.7202 16.6613Z" fill="white"/>
<path d="M136.482 3.67752C136.482 4.06635 136.482 4.38976 136.482 4.71681C136.482 13.3872 136.482 22.0577 136.482 30.7281C136.482 31.0079 136.493 31.2877 136.467 31.5639C136.402 32.327 135.817 32.8612 135.05 32.8685C134.33 32.8794 133.727 32.3779 133.622 31.6584C133.586 31.4113 133.6 31.1533 133.6 30.8989C133.6 21.469 133.6 12.0354 133.6 2.60553C133.6 1.15561 134.072 0.657768 135.493 0.66867C138.764 0.686839 142.034 0.6396 145.301 0.777687C152.907 1.09747 159.034 7.07883 159.771 14.67C160.185 18.9144 159.488 22.868 157.009 26.3784C154.004 30.6373 149.742 32.6105 144.618 32.8648C143.43 32.923 142.234 32.883 141.042 32.8721C140.054 32.8612 139.429 32.287 139.44 31.4331C139.454 30.5828 140.087 30.0377 141.071 29.9977C142.892 29.9178 144.745 30.0231 146.522 29.7034C151.929 28.7367 155.414 25.4917 156.613 20.1463C157.751 15.0806 156.719 10.4583 152.761 6.80266C150.447 4.66594 147.601 3.7284 144.498 3.63028C141.991 3.55034 139.48 3.61211 136.969 3.61575C136.845 3.61575 136.722 3.64482 136.482 3.67752Z" fill="white"/>
<path d="M8.79399 21.1383C8.79399 23.355 8.79399 25.4299 8.79399 27.5048C8.79399 28.7476 8.80489 29.9904 8.79035 31.2332C8.77582 32.2834 8.21983 32.8612 7.28229 32.843C6.37746 32.8285 5.85418 32.2907 5.85054 31.2441C5.83238 27.4649 5.83238 23.6893 5.85054 19.91C5.85418 18.849 6.44287 18.2966 7.5294 18.2857C9.30273 18.2712 11.0797 18.2857 12.853 18.2784C16.3198 18.2639 18.7544 16.5269 19.732 13.38C20.7494 10.1095 19.6956 6.541 17.0211 4.79311C16.1235 4.20442 14.9752 3.73928 13.925 3.69567C10.382 3.55395 6.82806 3.623 3.27776 3.61573C3.18328 3.61573 3.08516 3.6557 2.88893 3.69567C2.88893 4.01546 2.88893 4.33887 2.88893 4.65865C2.88893 13.3291 2.88893 22.0032 2.88893 30.6736C2.88893 30.9788 2.89984 31.2841 2.87076 31.5857C2.80536 32.3088 2.31478 32.774 1.5771 32.8357C0.839426 32.8975 0.250737 32.5232 0.0763111 31.8292C0.00363355 31.5385 0.00363327 31.2259 0.00363327 30.9243C-6.09853e-07 21.5162 0 12.1081 0 2.70363C0 1.13742 0.410628 0.71953 1.9841 0.723164C5.91232 0.734065 9.84418 0.679556 13.7724 0.784939C18.5073 0.912125 22.2248 4.45879 22.7953 9.18647C23.2023 12.5769 22.5082 15.6475 20.1644 18.213C18.4129 20.1281 16.1562 21.0075 13.6016 21.1201C12.0463 21.1928 10.4765 21.1383 8.79399 21.1383Z" fill="white"/>
<path d="M168.765 3.60846C168.765 12.457 168.765 21.171 168.765 29.9977C169.093 29.9977 169.387 29.9977 169.678 29.9977C173.762 29.9977 177.843 29.9941 181.927 30.0013C182.254 30.0013 182.592 30.0086 182.901 30.0994C183.574 30.2957 184.01 30.9643 183.904 31.6148C183.792 32.3197 183.348 32.7376 182.647 32.8503C182.4 32.8903 182.142 32.8721 181.887 32.8721C177.196 32.8721 172.505 32.8721 167.813 32.8721C166.284 32.8721 165.851 32.4469 165.851 30.9534C165.851 21.4944 165.851 12.0354 165.851 2.57644C165.851 1.13379 166.316 0.661382 167.766 0.661382C172.508 0.657748 177.251 0.657752 181.993 0.66502C182.32 0.66502 182.661 0.690453 182.967 0.792202C183.581 0.999333 183.926 1.47537 183.908 2.1222C183.893 2.75086 183.584 3.25961 182.956 3.44857C182.574 3.56122 182.16 3.60119 181.76 3.60119C177.752 3.6121 173.748 3.60846 169.739 3.60846C169.441 3.60846 169.14 3.60846 168.765 3.60846Z" fill="white"/>
<path d="M121.913 16.7013C121.953 22.4865 117.243 27.3886 111.564 27.3559C107.646 27.3341 104.605 25.6116 102.548 22.243C102.003 21.3491 102.155 20.5096 102.911 20.059C103.645 19.6193 104.408 19.8519 104.975 20.6913C106.622 23.1297 108.827 24.5505 111.854 24.3688C114.961 24.1798 117.145 22.5446 118.352 19.7392C119.562 16.923 119.184 14.183 117.192 11.8356C113.798 7.83466 108.086 8.21621 105.11 12.566C104.677 13.1983 104.241 13.7833 103.351 13.5907C102.308 13.3691 101.894 12.3443 102.472 11.3232C103.609 9.31728 105.23 7.81286 107.366 6.94436C114.431 4.0845 121.858 9.08108 121.913 16.7013Z" fill="white"/>
<path d="M142.339 9.46627C142.339 12.6714 142.339 15.7892 142.339 18.9071C142.339 19.2123 142.347 19.5176 142.31 19.8192C142.201 20.7022 141.671 21.1783 140.853 21.1528C140.061 21.1274 139.523 20.5896 139.512 19.7102C139.487 18.0132 139.501 16.3125 139.501 14.6155C139.501 12.486 139.494 10.3566 139.505 8.22712C139.508 7.05701 140.01 6.541 141.169 6.55553C143.211 6.58097 145.272 6.36294 147.263 7.10425C151.002 8.49966 153.048 11.2469 153.633 15.1097C154.106 18.2275 153.47 21.1201 151.438 23.6057C149.636 25.8151 147.234 26.8835 144.425 27.0542C143.364 27.1197 142.296 27.087 141.231 27.076C140.123 27.0615 139.512 26.5201 139.508 25.5825C139.505 24.6886 140.094 24.2016 141.195 24.1617C142.634 24.1144 144.116 24.2453 145.508 23.9545C149.124 23.1951 151.362 19.7538 150.89 16.0072C150.526 13.122 149.225 10.9344 146.398 9.866C145.112 9.37179 143.778 9.37179 142.339 9.46627Z" fill="white"/>
<path d="M66.8784 16.4869C66.8348 10.6836 69.8473 3.96459 76.6317 1.31912C80.8979 -0.345194 85.2367 -0.392434 89.5502 1.23918C90.604 1.6389 90.9674 2.35477 90.6113 3.23417C90.2842 4.04816 89.5175 4.3098 88.5036 3.92098C84.8298 2.5074 81.1632 2.51103 77.562 4.09904C73.3249 5.97048 70.8393 9.29548 69.9708 13.7979C69.2695 17.4172 69.88 20.8694 71.7369 24.0563C74.7094 29.1583 80.589 30.888 85.4984 30.0558C86.6394 29.8632 87.7478 29.4744 88.8706 29.1801C89.9681 28.893 90.931 29.7142 90.6549 30.808C90.5531 31.215 90.117 31.6838 89.7173 31.851C87.835 32.6432 85.8436 33.0574 83.8014 33.0901C79.8695 33.1483 76.1957 32.2761 73.0415 29.8087C69.5893 27.1124 67.7396 23.4858 67.111 19.2051C66.9801 18.3075 66.9547 17.3918 66.8784 16.4869Z" fill="#FF7C57"/>
<path d="M83.5722 27.1342C76.8531 27.1269 72.4634 21.7815 73.2883 15.0225C73.9933 9.24826 78.7827 5.61802 84.6151 6.13766C86.2176 6.27938 87.733 6.7954 89.1357 7.59848C89.9351 8.05272 90.1677 8.77222 89.7861 9.51717C89.4046 10.2585 88.6923 10.4838 87.8565 10.0477C85.9487 9.05203 83.9501 8.67411 81.8279 9.10291C78.5502 9.76791 76.2136 12.5151 76.061 15.8547C75.9519 18.2494 76.388 20.4879 78.2231 22.1812C80.6614 24.4379 83.5249 24.7177 86.5847 23.6966C87.0389 23.5439 87.4641 23.3041 87.9038 23.1151C88.6669 22.7845 89.3646 22.9843 89.7498 23.6384C90.1495 24.3216 89.9932 25.1065 89.281 25.5571C87.5367 26.6509 85.6217 27.1451 83.5722 27.1342Z" fill="#FF7C57"/>
<path d="M33.8279 16.7413C33.8279 12.079 33.8279 7.41311 33.8315 2.75084C33.8315 2.44923 33.8242 2.14035 33.8787 1.84237C34.0023 1.16647 34.6019 0.690439 35.285 0.683171C35.9537 0.675903 36.5424 1.15921 36.6732 1.84964C36.7241 2.12218 36.735 2.402 36.735 2.6818C36.7386 12.0826 36.7386 21.4871 36.735 30.888C36.735 31.1641 36.7277 31.4476 36.6768 31.7201C36.546 32.4215 35.9827 32.8721 35.2778 32.8684C34.5692 32.8648 34.0095 32.4215 33.8787 31.7165C33.8242 31.4221 33.8242 31.1133 33.8242 30.808C33.8279 26.1167 33.8279 21.429 33.8279 16.7413Z" fill="white"/>
<path d="M48.5091 9.42269C46.5505 9.42269 44.7045 9.42996 42.8585 9.41905C42.0081 9.41542 41.4231 9.01933 41.2595 8.3943C41.027 7.50037 41.6266 6.60643 42.6005 6.5919C45.0824 6.54466 47.5643 6.55192 50.0463 6.5919C50.9257 6.60643 51.4017 7.23146 51.409 8.19444C51.4235 10.0186 51.4126 11.8428 51.4126 13.6671C51.4126 19.4922 51.4162 25.3209 51.409 31.146C51.409 32.2871 50.8348 32.9157 49.8682 32.8648C49.1632 32.8285 48.6218 32.3525 48.5309 31.6475C48.491 31.3495 48.5055 31.0406 48.5055 30.7354C48.5055 23.9982 48.5055 17.2573 48.5055 10.5201C48.5055 10.1967 48.5091 9.86965 48.5091 9.42269Z" fill="white"/>
<path d="M57.2595 9.42267C57.2595 9.86237 57.2595 10.1894 57.2595 10.5128C57.2595 17.2282 57.2595 23.9437 57.2595 30.6591C57.2595 31.0115 57.2667 31.3749 57.2013 31.7202C57.0669 32.4324 56.6054 32.8212 55.8822 32.8612C55.1591 32.9012 54.6576 32.5668 54.4614 31.8619C54.3814 31.5748 54.3596 31.2623 54.3596 30.9607C54.356 23.4604 54.3524 15.9564 54.356 8.45607C54.356 7.06792 54.8575 6.56644 56.2274 6.56644C58.4586 6.56281 60.6862 6.55918 62.9174 6.57008C63.7714 6.57372 64.3056 6.95164 64.4727 7.63117C64.7198 8.63049 64.1021 9.40451 62.9901 9.41904C61.3948 9.44085 59.7959 9.42631 58.2006 9.42631C57.9281 9.42268 57.6519 9.42267 57.2595 9.42267Z" fill="white"/>
<path d="M27.9741 16.7776C27.9741 11.9627 27.9705 7.1442 27.9777 2.32932C27.9777 1.28276 28.6246 0.610489 29.5221 0.686801C30.1944 0.744943 30.7358 1.25732 30.8376 1.95866C30.8703 2.18396 30.8594 2.41289 30.8594 2.64183C30.8594 12.0717 30.8594 21.498 30.8594 30.9279C30.8594 31.1314 30.8703 31.3349 30.8485 31.5348C30.7613 32.3415 30.1508 32.8866 29.3659 32.8648C28.5737 32.843 27.9923 32.2834 27.985 31.4512C27.9668 28.664 27.9741 25.8768 27.9741 23.086C27.9741 20.9856 27.9741 18.8816 27.9741 16.7776Z" fill="white"/>
<path d="M174.619 9.42267C174.619 10.4365 174.619 11.3632 174.619 12.377C176.127 12.377 177.588 12.3734 179.052 12.3807C179.405 12.3843 179.765 12.3916 180.106 12.4715C180.782 12.6241 181.135 13.1038 181.186 13.7724C181.24 14.4701 180.851 14.9353 180.23 15.1642C179.906 15.2841 179.536 15.3132 179.187 15.3168C177.363 15.3314 175.539 15.3277 173.718 15.3205C172.195 15.3168 171.676 14.7899 171.672 13.26C171.668 11.6139 171.665 9.96775 171.676 8.32161C171.683 7.08972 172.199 6.57008 173.442 6.56644C176.353 6.55918 179.267 6.55918 182.178 6.56644C183.275 6.57008 183.944 7.14787 183.922 8.03453C183.9 8.86306 183.213 9.41541 182.163 9.41904C179.678 9.42631 177.199 9.42267 174.619 9.42267Z" fill="white"/>
<path d="M174.649 24.0926C174.987 24.0926 175.288 24.0926 175.586 24.0926C177.817 24.0926 180.049 24.0781 182.276 24.1035C183.297 24.1144 183.948 24.754 183.919 25.6188C183.893 26.411 183.265 26.967 182.298 26.9706C179.307 26.9852 176.317 26.9888 173.326 26.9706C172.188 26.9634 171.683 26.4183 171.676 25.2591C171.665 23.4858 171.662 21.7124 171.676 19.9354C171.683 18.8598 172.243 18.2966 173.326 18.2857C175.404 18.2675 177.483 18.2711 179.562 18.2857C180.546 18.2929 181.193 18.8816 181.193 19.7174C181.193 20.575 180.575 21.1455 179.587 21.1528C177.966 21.1673 176.346 21.1564 174.652 21.1564C174.649 22.1267 174.649 23.0424 174.649 24.0926Z" fill="white"/>
<path d="M10.0224 6.50465C11.1816 6.57006 12.359 6.53736 13.5 6.71542C15.535 7.03157 16.8432 8.72496 16.8577 10.8835C16.8723 13.0057 15.5604 14.8153 13.5909 15.1497C12.6097 15.3168 11.5777 15.2587 10.5748 15.186C9.76076 15.1279 9.39374 14.5864 9.41918 13.7724C9.44098 13.0529 9.86615 12.5805 10.6583 12.4933C11.2107 12.4315 11.7703 12.4642 12.3263 12.4351C13.4346 12.3806 14.0197 11.8356 13.9979 10.8907C13.9761 9.98591 13.3874 9.459 12.3117 9.4481C10.7165 9.42993 9.1212 9.4481 7.52229 9.44083C6.44666 9.43356 5.92339 8.97569 5.90522 8.06359C5.88705 7.11151 6.44303 6.5846 7.50776 6.57007C8.34355 6.55917 9.17934 6.56643 10.0151 6.56643C10.0224 6.54463 10.0224 6.52646 10.0224 6.50465Z" fill="white"/>
<path d="M35.4831 54.869L33.0968 46.1418H34.1706L35.9945 53.2497H36.0797L37.9377 46.1418H39.1308L40.9888 53.2497H41.074L42.8979 46.1418H43.9718L41.5854 54.869H40.4945L38.5683 47.9145H38.5002L36.574 54.869H35.4831ZM47.0885 54.869V46.1418H52.3556V47.0793H48.1453V50.0281H52.0828V50.9656H48.1453V53.9315H52.4237V54.869H47.0885ZM68.2581 48.869H67.2013C67.1388 48.565 67.0294 48.298 66.8732 48.0679C66.7198 47.8378 66.5323 47.6446 66.3107 47.4883C66.0919 47.3293 65.849 47.2099 65.582 47.1304C65.3149 47.0508 65.0365 47.0111 64.7468 47.0111C64.2183 47.0111 63.7397 47.1446 63.3107 47.4116C62.8845 47.6787 62.5451 48.0722 62.2922 48.592C62.0422 49.1119 61.9172 49.7497 61.9172 50.5054C61.9172 51.2611 62.0422 51.8989 62.2922 52.4187C62.5451 52.9386 62.8845 53.3321 63.3107 53.5991C63.7397 53.8662 64.2183 53.9997 64.7468 53.9997C65.0365 53.9997 65.3149 53.9599 65.582 53.8804C65.849 53.8008 66.0919 53.6829 66.3107 53.5267C66.5323 53.3676 66.7198 53.173 66.8732 52.9429C67.0294 52.7099 67.1388 52.4429 67.2013 52.1418H68.2581C68.1786 52.5878 68.0337 52.9869 67.8235 53.3392C67.6132 53.6915 67.3519 53.9912 67.0394 54.2383C66.7269 54.4827 66.376 54.6687 65.9868 54.7966C65.6004 54.9244 65.1871 54.9883 64.7468 54.9883C64.0024 54.9883 63.3405 54.8065 62.761 54.4429C62.1814 54.0793 61.7254 53.5622 61.3931 52.8918C61.0607 52.2213 60.8945 51.4258 60.8945 50.5054C60.8945 49.5849 61.0607 48.7895 61.3931 48.119C61.7254 47.4486 62.1814 46.9315 62.761 46.5679C63.3405 46.2043 64.0024 46.0224 64.7468 46.0224C65.1871 46.0224 65.6004 46.0864 65.9868 46.2142C66.376 46.342 66.7269 46.5295 67.0394 46.7767C67.3519 47.021 67.6132 47.3193 67.8235 47.6716C68.0337 48.021 68.1786 48.4202 68.2581 48.869ZM79.1295 50.5054C79.1295 51.4258 78.9633 52.2213 78.6309 52.8918C78.2985 53.5622 77.8426 54.0793 77.263 54.4429C76.6835 54.8065 76.0215 54.9883 75.2772 54.9883C74.5329 54.9883 73.871 54.8065 73.2914 54.4429C72.7119 54.0793 72.2559 53.5622 71.9235 52.8918C71.5911 52.2213 71.425 51.4258 71.425 50.5054C71.425 49.5849 71.5911 48.7895 71.9235 48.119C72.2559 47.4486 72.7119 46.9315 73.2914 46.5679C73.871 46.2043 74.5329 46.0224 75.2772 46.0224C76.0215 46.0224 76.6835 46.2043 77.263 46.5679C77.8426 46.9315 78.2985 47.4486 78.6309 48.119C78.9633 48.7895 79.1295 49.5849 79.1295 50.5054ZM78.1068 50.5054C78.1068 49.7497 77.9804 49.1119 77.7275 48.592C77.4775 48.0722 77.138 47.6787 76.709 47.4116C76.2829 47.1446 75.8056 47.0111 75.2772 47.0111C74.7488 47.0111 74.2701 47.1446 73.8411 47.4116C73.415 47.6787 73.0755 48.0722 72.8227 48.592C72.5727 49.1119 72.4477 49.7497 72.4477 50.5054C72.4477 51.2611 72.5727 51.8989 72.8227 52.4187C73.0755 52.9386 73.415 53.3321 73.8411 53.5991C74.2701 53.8662 74.7488 53.9997 75.2772 53.9997C75.8056 53.9997 76.2829 53.8662 76.709 53.5991C77.138 53.3321 77.4775 52.9386 77.7275 52.4187C77.9804 51.8989 78.1068 51.2611 78.1068 50.5054ZM85.3997 54.869H82.7065V46.1418H85.519C86.3656 46.1418 87.09 46.3165 87.6923 46.6659C88.2946 47.0125 88.7562 47.5111 89.0772 48.1616C89.3983 48.8094 89.5588 49.5849 89.5588 50.4883C89.5588 51.3974 89.3968 52.1801 89.073 52.8364C88.7491 53.4898 88.2775 53.9926 87.6582 54.3449C87.0389 54.6943 86.286 54.869 85.3997 54.869ZM83.7633 53.9315H85.3315C86.0531 53.9315 86.6511 53.7923 87.1255 53.5139C87.6 53.2355 87.9537 52.8392 88.1866 52.325C88.4196 51.8108 88.536 51.1986 88.536 50.4883C88.536 49.7838 88.421 49.1773 88.1909 48.6687C87.9608 48.1574 87.617 47.7653 87.1596 47.4926C86.7022 47.217 86.1326 47.0793 85.4508 47.0793H83.7633V53.9315ZM93.1315 54.869V46.1418H98.3985V47.0793H94.1883V50.0281H98.1258V50.9656H94.1883V53.9315H98.4667V54.869H93.1315ZM108.335 46.1418V54.869H107.278V46.1418H108.335ZM111.777 47.0793V46.1418H118.322V47.0793H115.578V54.869H114.521V47.0793H111.777ZM127.286 54.869H126.178L129.383 46.1418H130.474L133.678 54.869H132.57L129.962 47.5224H129.894L127.286 54.869ZM127.695 51.4599H132.161V52.3974H127.695V51.4599ZM136.838 54.869V46.1418H137.895V53.9315H141.951V54.869H136.838ZM145.388 54.869V46.1418H146.445V53.9315H150.501V54.869H145.388Z" fill="white"/>
</svg>
